<svg width="256" height="256" fill="none" xmlns="http://www.w3.org/2000/svg"><rect width="256" height="256" rx="20" fill="#fff"/><path d="M180.8 180h-38.912v-3.968l12.032-9.344-9.856-23.68h-43.008L90.56 167.2l22.528 7.68-2.56 5.12H71.616v-3.968l12.032-9.472 36.224-83.072 13.312-6.528 37.376 90.112 12.8 7.808-2.56 5.12Zm-57.728-87.68-19.456 44.928h38.144L123.072 92.32ZM19.4 122.288c.427.085.81.128 1.152.128h1.152c1.536 0 2.987-.213 4.352-.64a11.72 11.72 0 0 0 3.968-2.048l.256-.384a473.566 473.566 0 0 1-5.376-11.904c-1.621-3.925-2.432-8.192-2.432-12.8 0-3.925.64-7.467 1.92-10.624 1.365-3.243 3.2-5.973 5.504-8.192 2.39-2.304 5.205-4.053 8.448-5.248 3.328-1.195 6.955-1.792 10.88-1.792l-.256.64c.085.341.17.725.256 1.152.17.427.256.768.256 1.024 0 .427-.341.81-1.024 1.152-.597.341-1.323.64-2.176.896l-2.56.512c-.853.17-1.45.299-1.792.384l.384 1.28h1.024a4.21 4.21 0 0 1 1.024-.128c1.707 0 3.37.256 4.992.768 1.621.512 2.773 1.536 3.456 3.072-.085.939-.896 1.664-2.432 2.176-1.536.512-3.2 1.237-4.992 2.176-1.792.853-3.456 2.133-4.992 3.84-1.45 1.707-2.176 4.267-2.176 7.68 0 2.73.427 5.077 1.28 7.04a79.025 79.025 0 0 0 2.688 5.376A62.07 62.07 0 0 1 45 113.072c.853 1.792 1.28 3.925 1.28 6.4 0 1.28-.299 2.432-.896 3.456a10.8 10.8 0 0 1-2.048 2.816 12.543 12.543 0 0 1-2.944 2.176 33.015 33.015 0 0 1-2.944 1.536c.085.341.256.683.512 1.024.256.256.512.64.768 1.152.256.512.47 1.195.64 2.048.256.768.384 1.877.384 3.328 0 2.048-.128 4.096-.384 6.144a69.422 69.422 0 0 0-.256 6.016c0 2.219.299 4.565.896 7.04a23.003 23.003 0 0 0 2.816 6.656c1.28 2.048 2.859 3.755 4.736 5.12 1.963 1.28 4.267 1.92 6.912 1.92h.768c.512 0 .939.085 1.28.256.341.171.512.64.512 1.408l-.128.512c-4.096 0-7.893-1.195-11.392-3.584-3.243-2.219-5.717-5.035-7.424-8.448 1.536 3.584 3.925 6.528 7.168 8.832 3.499 2.389 7.296 3.712 11.392 3.968l-.384 1.664c.341.085.64.171.896.256.341.085.683.128 1.024.128.512 0 1.067-.043 1.664-.128a12.706 12.706 0 0 1 1.792-.128c.768 0 1.45.128 2.048.384.597.256 1.11.853 1.536 1.792 0 1.195-.555 2.176-1.664 2.944-1.024.853-2.005 1.493-2.944 1.92-4.267 0-8.405-.725-12.416-2.176-4.01-1.365-7.552-3.328-10.624-5.888-3.072-2.645-5.547-5.803-7.424-9.472-1.792-3.755-2.688-7.893-2.688-12.416 0-2.133.128-4.224.384-6.272.341-2.048.512-4.139.512-6.272 0-.171-.085-.469-.256-.896l-.256-1.024c0 2.475-.128 4.949-.384 7.424a104.25 104.25 0 0 0-.256 7.168c0 4.096.853 8.021 2.56 11.776a33.803 33.803 0 0 0 6.784 9.728c2.816 2.731 6.059 4.949 9.728 6.656a29.656 29.656 0 0 0 11.776 2.688 8.82 8.82 0 0 1-2.944.768c-.939.085-1.92.128-2.944.128a18.87 18.87 0 0 1-8.32-1.92 28.94 28.94 0 0 1-7.296-4.736 36.558 36.558 0 0 1-5.888-6.656c-1.621-2.475-2.901-4.992-3.84-7.552l1.28-.512a64.095 64.095 0 0 1-1.92-4.864 17.739 17.739 0 0 1-.768-5.12c0-2.56.085-5.12.256-7.68.256-2.645.384-5.248.384-7.808l-1.024 3.328c0-1.365-.213-2.56-.64-3.584-.341-1.024-1.237-1.536-2.688-1.536h-1.408l-.896-12.672Zm4.864 26.88v-1.28c.085-.512.17-.981.256-1.408v1.92c0 2.219.085 4.437.256 6.656a35.664 35.664 0 0 0 1.28 6.144 23.017 23.017 0 0 1-1.536-5.888 73.938 73.938 0 0 1-.256-6.144Zm6.656-29.824c-.341.683-.939 1.152-1.792 1.408l1.408.512.512-.384.512-1.28-.64-.256Zm6.4 17.792c0 .768-.043 1.536-.128 2.304 0 .683-.043 1.365-.128 2.048a38.88 38.88 0 0 0 .384-5.504c0-.427-.085-.896-.256-1.408.085.341.128.725.128 1.152v1.408ZM245.322 172.704c.683 0 1.195.256 1.536.768.341.512.512 1.067.512 1.664 0 .939-.299 1.749-.896 2.432a23.275 23.275 0 0 1-1.92 2.176c-1.024-.597-2.261-1.152-3.712-1.664a52.236 52.236 0 0 0-4.352-1.408 43.412 43.412 0 0 0-4.608-.768 38.405 38.405 0 0 0-4.224-.256h-.64l-5.632.128c1.877.171 3.755.256 5.632.256a62.67 62.67 0 0 1 5.76.512c1.963.256 3.84.683 5.632 1.28a19.962 19.962 0 0 1 5.248 2.56l-2.176.896c-1.195 0-2.133-.213-2.816-.64-.683-.427-1.621-.725-2.816-.896l-1.408-1.408a51.57 51.57 0 0 1-7.296-.512 68.436 68.436 0 0 0-7.296-.384c-2.048 0-4.011.256-5.888.768v.768c-3.669.171-7.296.384-10.88.64-3.584.256-7.211.512-10.88.768a16.214 16.214 0 0 0-3.072-1.024 18.62 18.62 0 0 0-3.072-.256v-.512c.085-.085.128-.213.128-.384 0-.683-.085-1.451-.256-2.304l1.664-1.408.896.128v-1.408c-.939-.427-1.835-1.067-2.688-1.92-.768-.768-1.152-1.749-1.152-2.944 0-.939.299-1.707.896-2.304.597-.512 1.323-.896 2.176-1.152a16.261 16.261 0 0 1 2.816-.512h2.432c4.096 0 8.192-.213 12.288-.64 4.181-.341 8.32-.512 12.416-.512.683 0 1.877.043 3.584.128 1.707.171 3.627.341 5.76.512 2.133.256 4.309.555 6.528.896 2.304.341 4.395.725 6.272 1.152 1.877.427 3.413.896 4.608 1.408 1.28.512 1.92 1.024 1.92 1.536 0 .256-.085.64-.256 1.152a69.028 69.028 0 0 0-10.88-2.432 233.683 233.683 0 0 1-10.752-1.536c3.499.853 6.997 1.536 10.496 2.048a60.98 60.98 0 0 1 10.88 2.56l-.512 2.048Zm-11.264 6.912a131.432 131.432 0 0 0-8.32-.768 284.277 284.277 0 0 0-8.576-.128 25.813 25.813 0 0 1 2.56-.128h2.56c1.963 0 3.925.043 5.888.128 1.963.171 3.925.469 5.888.896Z" fill="#000"/></svg>